<svg width="24" height="24" viewBox="0 0 24 24" fill="none" xmlns="http://www.w3.org/2000/svg">
<path d="M15 2.00006V12.0001C15 13.1001 14.1 14.0001 13 14.0001H2V6.00006C2 3.79006 3.79 2.00006 6 2.00006H15Z" stroke="#8E8E93" stroke-width="1.5" stroke-linecap="round" stroke-linejoin="round"/>
<path d="M22 14.0001V17.0001C22 18.6601 20.66 20.0001 19 20.0001H18C18 18.9001 17.1 18.0001 16 18.0001C14.9 18.0001 14 18.9001 14 20.0001H10C10 18.9001 9.1 18.0001 8 18.0001C6.9 18.0001 6 18.9001 6 20.0001H5C3.34 20.0001 2 18.6601 2 17.0001V14.0001H13C14.1 14.0001 15 13.1001 15 12.0001V5.00006H16.84C17.56 5.00006 18.22 5.39006 18.58 6.01006L20.29 9.00006H19C18.45 9.00006 18 9.45006 18 10.0001V13.0001C18 13.5501 18.45 14.0001 19 14.0001H22Z" stroke="#8E8E93" stroke-width="1.5" stroke-linecap="round" stroke-linejoin="round"/>
<path d="M8 22.0001C8.53043 22.0001 9.03914 21.7893 9.41421 21.4143C9.78929 21.0392 10 20.5305 10 20.0001C10 19.4696 9.78929 18.9609 9.41421 18.5858C9.03914 18.2108 8.53043 18.0001 8 18.0001C7.46957 18.0001 6.96086 18.2108 6.58579 18.5858C6.21071 18.9609 6 19.4696 6 20.0001C6 20.5305 6.21071 21.0392 6.58579 21.4143C6.96086 21.7893 7.46957 22.0001 8 22.0001ZM16 22.0001C16.5304 22.0001 17.0391 21.7893 17.4142 21.4143C17.7893 21.0392 18 20.5305 18 20.0001C18 19.4696 17.7893 18.9609 17.4142 18.5858C17.0391 18.2108 16.5304 18.0001 16 18.0001C15.4696 18.0001 14.9609 18.2108 14.5858 18.5858C14.2107 18.9609 14 19.4696 14 20.0001C14 20.5305 14.2107 21.0392 14.5858 21.4143C14.9609 21.7893 15.4696 22.0001 16 22.0001ZM22 12.0001V14.0001H19C18.45 14.0001 18 13.5501 18 13.0001V10.0001C18 9.45006 18.45 9.00006 19 9.00006H20.29L22 12.0001Z" stroke="#8E8E93" stroke-width="1.5" stroke-linecap="round" stroke-linejoin="round"/>
</svg>
